# xmcd
#
# Track frame offsets:
#	150
#	14420
#	32281
#	51211
#	68113
#	85111
#	103788
#	121040
#	138236
#
# Disc length: 2050 seconds
#
# Revision: 0
# Processed by: cddbd v1.5.2PL0 Copyright (c) Steve Scherf et al.
# Submitted via: EasyCDDAExtractor 12.0.1.1
#
DISCID=69080009
DTITLE=Sunny Ridell
DYEAR=2001
DGENRE=Blues
TTITLE0=Hey Osama!
TTITLE1=Good Morning Blues
TTITLE2=Talk Dirty To Me
TTITLE3=I Can't Stand It
TTITLE4=You Stopped The Water Running
TTITLE5=Don't Steal My Baby
TTITLE6=Come Out Into My World
TTITLE7=For The Love Of A Woman
TTITLE8=Keep What I Need
EXTD=
EXTT0=
EXTT1=
EXTT2=
EXTT3=
EXTT4=
EXTT5=
EXTT6=
EXTT7=
EXTT8=
PLAYORDER=
